# xmcd
# 
# Track frame offsets:
#     150
#     39182
#     72825
#     102072
#     128555
#     172042
#     185725
#     205092
#     249627
#     280617
#     305932
# 
# Disc length: 4610
# 
# Revision: 4
# Processed by: cddbd v1.5.2PL0 Copyright (c) Steve Scherf et al.
# Submitted via: fre:ac v1.0.17
# 
DISCID=9912000b
DTITLE=Steve Hackett - GENESIS REVISITED
DYEAR=1996
DGENRE=Progressive Rock
TTITLE0=Watcher Of The Skies
TTITLE1=Dance On A Volcano
TTITLE2=Valley Of The Kings
TTITLE3=Deja Vu
TTITLE4=Firth Of Fifth
TTITLE5=For Absent Friends
TTITLE6=Your Own Special Way
TTITLE7=Fountain Of Salmacis
TTITLE8=Waiting Room Only
TTITLE9=I Know What I Like
TTITLE10=Los Endos
EXTD=
EXTT0=
EXTT1=
EXTT2=
EXTT3=
EXTT4=
EXTT5=
EXTT6=
EXTT7=
EXTT8=
EXTT9=
EXTT10=
PLAYORDER=
